<svg id="Layer_1" data-name="Layer 1" xmlns="http://www.w3.org/2000/svg" viewBox="0 0 379.5 323.6"><defs><style>.cls-1{fill:#873aff;}.cls-2{fill:#fff;}</style></defs><rect class="cls-1" x="-3" y="-3.1" width="387" height="332"/><path class="cls-2" d="M269.9,49.1H110.8A36.5,36.5,0,0,0,74.3,85.6V208.7a36.5,36.5,0,0,0,36.5,36.5h0l25,1.5a69.7,69.7,0,0,1,54.1,30l.4-.6a70.2,70.2,0,0,1,53.9-29.4l25.7-1.5a36.7,36.7,0,0,0,36.7-36.5V85.6A36.7,36.7,0,0,0,269.9,49.1Zm-.2,156.5L243.6,207a66.6,66.6,0,0,0-53,31l-.7.9a66.9,66.9,0,0,0-23.2-23.2,69,69,0,0,0-31.4-9.2l-24.1-.9V85.4h42.6c19.6,0,35.5,16.1,36.7,35.4h0c1.1-19.3,17-35.4,36.4-35.4h42.8Z"/></svg>