<svg id="Layer_1" data-name="Layer 1" xmlns="http://www.w3.org/2000/svg" viewBox="0 0 379.5 323.6"><defs><style>.cls-1{font-size:72.77px;font-family:PantonDemo-Black, Panton;font-weight:800;}.cls-1,.cls-2{fill:#873aff;}</style></defs><text class="cls-1" transform="translate(31.2 269.4)">уммики</text><path class="cls-2" d="M232.9,66.7H147a19.7,19.7,0,0,0-19.7,19.7v66.5A19.7,19.7,0,0,0,147,172.6l13.5.8a37.7,37.7,0,0,1,29.2,16.2l.2-.3A38.1,38.1,0,0,1,219,173.4l13.9-.8a19.8,19.8,0,0,0,19.8-19.7V86.4A19.8,19.8,0,0,0,232.9,66.7Zm-.1,84.5-14.1.8a35.9,35.9,0,0,0-28.6,16.7l-.4.5a35.6,35.6,0,0,0-12.5-12.5,37.3,37.3,0,0,0-17-5l-13-.5V86.3h23c10.6,0,19.2,8.7,19.8,19.1h0c.6-10.4,9.2-19.1,19.7-19.1h23.1Z"/></svg>